<?xml version="1.0" encoding="UTF-8" standalone="no"?><svg xmlns="http://www.w3.org/2000/svg" xmlns:xlink="http://www.w3.org/1999/xlink" contentScriptType="application/ecmascript" contentStyleType="text/css" height="262px" preserveAspectRatio="none" style="width:574px;height:262px;background:#FFFFFF;" version="1.1" viewBox="0 0 574 262" width="574px" zoomAndPan="magnify"><defs><filter height="300%" id="f1dqtus0ojuc2d" width="300%" x="-1" y="-1"><feGaussianBlur result="blurOut" stdDeviation="2.0"/><feColorMatrix in="blurOut" result="blurOut2" type="matrix" values="0 0 0 0 0 0 0 0 0 0 0 0 0 0 0 0 0 0 .4 0"/><feOffset dx="4.0" dy="4.0" in="blurOut2" result="blurOut3"/><feBlend in="SourceGraphic" in2="blurOut3" mode="normal"/></filter></defs><g><!--MD5=[ad8f97a6de27c4a0faf7a09cd129c5e0]
class GrandParent--><rect fill="#FEFECE" filter="url(#f1dqtus0ojuc2d)" height="24.1328" id="GrandParent" style="stroke:#A80036;stroke-width:1.5;" width="79" x="178.68" y="7"/><text fill="#000000" font-family="sans-serif" font-size="12" lengthAdjust="spacing" textLength="73" x="181.68" y="23.6016">GrandParent</text><!--MD5=[cf9bc73d4b319b8f5d50999aecc13d13]
class Parent--><rect fill="#FEFECE" filter="url(#f1dqtus0ojuc2d)" height="24.1328" id="Parent" style="stroke:#A80036;stroke-width:1.5;" width="43" x="196.68" y="123"/><text fill="#000000" font-family="sans-serif" font-size="12" lengthAdjust="spacing" textLength="37" x="199.68" y="139.6016">Parent</text><!--MD5=[661c05259cf57e4b4baa54079a4420a8]
class Child--><rect fill="#FEFECE" filter="url(#f1dqtus0ojuc2d)" height="24.1328" id="Child" style="stroke:#A80036;stroke-width:1.5;" width="35" x="200.68" y="224"/><text fill="#000000" font-family="sans-serif" font-size="12" lengthAdjust="spacing" textLength="29" x="203.68" y="240.6016">Child</text><!--MD5=[30a2ee01ba41df40e2c48b7491e50fa9]
reverse link GrandParent to Parent--><path codeLine="4" d="M165.25,25.56 C120.61,31.46 61.73,42.55 47.18,61 C6,113.21 141.82,128.67 196.45,132.71 " fill="none" id="GrandParent-backto-Parent" style="stroke:#A80036;stroke-width:1.0;"/><polygon fill="#A80036" points="178.29,23.92,171.8362,20.703,166.3845,25.423,172.8383,28.64,178.29,23.92" style="stroke:#A80036;stroke-width:1.0;"/><polygon fill="#000000" points="53.5778,81.9559,53.8709,72.4498,48.2274,74.0931,53.5778,81.9559" style="stroke:#000000;stroke-width:1.0;"/><text fill="#000000" font-family="sans-serif" font-size="13" lengthAdjust="spacing" textLength="282" x="61.18" y="82.0684">props = { onTitleChange, onContentChange }</text><!--MD5=[30a2ee01ba41df40e2c48b7491e50fa9]
reverse link GrandParent to Parent--><path codeLine="7" d="M271.13,22.39 C298.83,26.66 330.56,36.97 348.18,61 C356.59,72.47 356.59,81.53 348.18,93 C323.2,127.07 269.85,133.56 239.84,134.37 " fill="none" id="GrandParent-backto-Parent-1" style="stroke:#A80036;stroke-width:1.0;"/><polygon fill="#A80036" points="257.93,20.74,263.3869,25.4541,269.8371,22.23,264.3802,17.516,257.93,20.74" style="stroke:#A80036;stroke-width:1.0;"/><text fill="#000000" font-family="sans-serif" font-size="13" lengthAdjust="spacing" textLength="153" x="384.18" y="74.5684">onTitleChange(new title)</text><polygon fill="#000000" points="361.5256,80.1503,356.2609,88.0708,361.9219,89.6526,361.5256,80.1503" style="stroke:#000000;stroke-width:1.0;"/><text fill="#000000" font-family="sans-serif" font-size="13" lengthAdjust="spacing" textLength="198" x="368.18" y="89.8789">onContentChange(new content)</text><!--MD5=[698bd73ad581ce73a8c6f885ca2f3411]
reverse link Parent to Child--><path codeLine="5" d="M183.52,137.19 C154.91,140.23 115.91,149.56 96.18,177 C68.53,215.47 160.47,229.34 200.49,233.48 " fill="none" id="Parent-backto-Child" style="stroke:#A80036;stroke-width:1.0;"/><polygon fill="#A80036" points="196.61,136.15,190.3123,132.6373,184.6476,137.0996,190.9454,140.6123,196.61,136.15" style="stroke:#A80036;stroke-width:1.0;"/><polygon fill="#000000" points="102.0478,190.5794,103.3722,181.1615,97.5836,182.1817,102.0478,190.5794" style="stroke:#000000;stroke-width:1.0;"/><text fill="#000000" font-family="sans-serif" font-size="13" lengthAdjust="spacing" textLength="183" x="110.18" y="190.5684">props = { onContentChange }</text><!--MD5=[698bd73ad581ce73a8c6f885ca2f3411]
reverse link Parent to Child--><path codeLine="8" d="M252.7,144.54 C269.52,150.63 288.22,160.71 298.18,177 C314.91,204.37 264.51,222.7 236.13,230.6 " fill="none" id="Parent-backto-Child-1" style="stroke:#A80036;stroke-width:1.0;"/><polygon fill="#A80036" points="239.82,140.47,244.3317,146.0953,251.2596,144.0943,246.7479,138.4689,239.82,140.47" style="stroke:#A80036;stroke-width:1.0;"/><polygon fill="#000000" points="307.1253,180.7455,302.5293,189.0717,308.3011,190.1831,307.1253,180.7455" style="stroke:#000000;stroke-width:1.0;"/><text fill="#000000" font-family="sans-serif" font-size="13" lengthAdjust="spacing" textLength="198" x="315.18" y="190.5684">onContentChange(new content)</text><!--MD5=[b63d45cccb9ccc83b58eb0cae6c55651]
@startuml
hide empty members
hide circle

GrandParent *- - Parent: props = { onTitleChange, onContentChange } >
Parent *- - Child: props = { onContentChange } >

GrandParent *- - Parent: onTitleChange(new title)\nonContentChange(new content) <
Parent *- - Child: onContentChange(new content) <
@enduml

PlantUML version 1.2022.1(Tue Feb 01 19:19:58 CET 2022)
(GPL source distribution)
Java Runtime: OpenJDK Runtime Environment
JVM: OpenJDK 64-Bit Server VM
Default Encoding: UTF-8
Language: en
Country: NO
--></g></svg>